<?xml version="1.0" standalone="no"?>
<svg viewBox="0 0 200 200" xmlns="http://www.w3.org/2000/svg">
  <path fill="#D08770" d="M42.4,-65.3C56.2,-57,69.5,-47.4,69.1,-35.3C68.7,-23.3,54.6,-8.7,51.8,7.1C48.9,22.9,57.4,39.9,54.3,51.7C51.3,63.4,36.9,69.9,21.2,76.3C5.6,82.6,-11.2,88.9,-17.2,78.2C-23.3,67.5,-18.7,39.8,-23.6,25.4C-28.6,10.9,-43.2,9.6,-41,7.5C-38.9,5.4,-20,2.4,-13.6,-4C-7.2,-10.4,-13.3,-20.2,-13.1,-34.7C-12.9,-49.1,-6.4,-68.2,3.9,-74.3C14.3,-80.4,28.6,-73.5,42.4,-65.3Z" transform="translate(100 100)" />
</svg>
